<svg width="46" height="44" viewBox="0 0 46 44" fill="none" xmlns="http://www.w3.org/2000/svg">
<rect x="44.5" y="42.5" width="43" height="41" rx="20.5" transform="rotate(-180 44.5 42.5)" stroke="#0C7633" stroke-width="3"/>
<path d="M27.7915 32L27.7915 14C27.7909 13.8177 27.7385 13.6391 27.64 13.4833C27.5416 13.3275 27.4007 13.2004 27.2326 13.1158C27.0644 13.0311 26.8755 12.9921 26.686 13.0029C26.4965 13.0137 26.3136 13.0738 26.1571 13.177L12.6154 22.177C12.054 22.55 12.054 23.448 12.6154 23.822L26.1571 32.822C26.3133 32.9262 26.4962 32.9872 26.686 32.9986C26.8759 33.01 27.0653 32.9712 27.2338 32.8865C27.4022 32.8017 27.5433 32.6743 27.6416 32.518C27.7399 32.3617 27.7918 32.1826 27.7915 32Z" fill="#0C7633"/>
</svg>
