<svg width="46" height="44" viewBox="0 0 46 44" fill="none" xmlns="http://www.w3.org/2000/svg">
<path d="M18.2085 12L18.2085 30C18.2091 30.1823 18.2615 30.3609 18.36 30.5167C18.4584 30.6725 18.5993 30.7996 18.7674 30.8842C18.9356 30.9689 19.1245 31.0079 19.314 30.9971C19.5035 30.9863 19.6864 30.9262 19.8429 30.823L33.3846 21.823C33.946 21.45 33.946 20.552 33.3846 20.178L19.8429 11.178C19.6867 11.0738 19.5038 11.0128 19.314 11.0014C19.1241 10.99 18.9347 11.0288 18.7662 11.1135C18.5978 11.1983 18.4567 11.3257 18.3584 11.482C18.2601 11.6383 18.2082 11.8174 18.2085 12Z" fill="#0C7633"/>
<rect x="1.5" y="1.5" width="43" height="41" rx="20.5" stroke="#0C7633" stroke-width="3"/>
</svg>
