<svg width="149" height="149" viewBox="0 0 149 149" fill="none" xmlns="http://www.w3.org/2000/svg">
<path fill-rule="evenodd" clip-rule="evenodd" d="M34.8027 114.207C32.3128 115.691 30.4421 117.983 29.5212 120.679C28.6002 123.375 28.6881 126.301 29.7695 128.94C30.8509 131.579 32.8561 133.761 35.4309 135.101C38.0056 136.441 40.9843 136.852 43.8406 136.263C46.6968 135.673 49.247 134.12 51.0404 131.878C52.8338 129.636 53.7551 126.849 53.6416 124.01C53.528 121.172 52.3869 118.463 50.4198 116.363C48.4527 114.264 45.7863 112.908 42.8915 112.536C42.7369 111.998 42.5951 111.455 42.4664 110.91C41.9021 108.429 41.4614 105.923 41.1458 103.401C40.8049 100.852 40.612 98.2861 40.568 95.7157C40.5595 95.0098 40.5801 94.3038 40.6299 93.5996C42.2147 93.1579 43.8077 92.7563 45.3966 92.407C47.2166 92.0054 48.2978 94.0935 49.1686 95.788L49.5235 96.4666H98.0112C98.9563 94.7239 101.098 91.9452 103.174 92.407C105.386 92.8969 107.611 93.4791 109.814 94.1457L109.802 94.1497C109.794 94.1416 109.794 94.1416 109.802 94.1577C109.818 94.2139 109.909 94.4789 110 95.0411C110.103 95.6916 110.173 96.5348 110.206 97.5507C110.264 99.5745 110.145 102.036 109.901 104.517C109.653 106.995 109.286 109.392 108.873 111.283C108.783 111.705 108.692 112.087 108.601 112.432H103.174C102.408 112.432 101.657 112.64 101.005 113.032C100.354 113.425 99.8271 113.986 99.4846 114.652L95.3576 122.683C95.0704 123.24 94.9207 123.855 94.9201 124.478V132.509C94.9201 133.574 95.3549 134.595 96.1289 135.348C96.9028 136.101 97.9526 136.524 99.0471 136.524H107.301V128.494H103.174V125.426L105.725 120.463H117.131L119.682 125.426V128.494H115.555V136.524H123.809C124.903 136.524 125.953 136.101 126.727 135.348C127.501 134.595 127.936 133.574 127.936 132.509V124.478C127.935 123.855 127.786 123.24 127.498 122.683L123.371 114.652C123.029 113.986 122.502 113.425 121.851 113.032C121.199 112.64 120.448 112.432 119.682 112.432H117.057C117.499 110.292 117.866 107.794 118.114 105.288C118.386 102.582 118.526 99.7753 118.456 97.3259L118.452 97.2134C134.91 103.979 148.571 115.106 148.571 126.767V148.571H0V126.767C0 114.592 14.8983 102.996 32.3182 96.3421C32.3636 98.8397 32.6071 101.663 32.9579 104.397C33.3376 107.348 33.8535 110.284 34.423 112.701C34.5468 113.219 34.6706 113.721 34.8027 114.207ZM41.2696 128.554C43.4899 128.554 45.3966 126.787 45.3966 124.478C45.3966 122.173 43.4899 120.403 41.2696 120.403C39.0493 120.403 37.1427 122.169 37.1427 124.478C37.1427 126.783 39.0493 128.554 41.2696 128.554Z" fill="#494748"/>
<path d="M24.7617 54.0597C24.7617 71.7557 53.6092 76.2931 53.6092 76.2931C53.6092 76.2931 46.9565 42.162 51.587 36.1388C56.2174 30.1157 90.5991 20.0089 92.8566 24.0926C113.636 53.1321 88.9649 76.2931 88.9649 76.2931C88.9649 76.2931 119.682 80.3085 119.682 54.0597C119.682 27.8149 105.225 12.0463 105.225 12.0463C105.225 12.0463 94.8375 0 74.5122 0C54.1828 0 46.9565 12.0463 46.9565 12.0463C46.9565 12.0463 24.7617 36.3637 24.7617 54.0597Z" fill="#494748"/>
<path d="M48.9082 75.298C55.3269 82.7334 65.2295 87.4436 76.1854 87.4436C86.678 87.4436 96.4819 82.1948 102.908 75.298C99.3564 74.2854 92.1785 76.8456 89.4111 76.2266C85.5396 78.2482 81.0347 79.4127 76.1854 79.4127C64.415 79.4127 54.6531 72.4677 51.0709 63.1426C52.4872 72.8251 51.9995 75.298 53.5886 76.206L53.6943 76.2266C51.9995 75.298 51.9995 75.298 53.5886 76.206L48.9082 75.298Z" fill="#494748"/>
</svg>
