<svg width="47" height="35" viewBox="0 0 47 35" fill="none" xmlns="http://www.w3.org/2000/svg">
<path d="M44.3138 0.0153554C44.1151 -0.00511847 43.9149 -0.00511847 43.7162 0.0153554H2.90051C2.63892 0.0193862 2.37906 0.0586103 2.12793 0.131971L23.1917 21.1083L44.3138 0.0153554Z" fill="#494748"/>
<path d="M46.4715 2.04138L25.2474 23.1781C24.7012 23.7211 23.9622 24.0258 23.192 24.0258C22.4218 24.0258 21.6829 23.7211 21.1367 23.1781L0.102039 2.20173C0.0373747 2.43939 0.00308841 2.6843 0 2.93058V32.0846C0 32.8578 0.307158 33.5994 0.853902 34.1461C1.40065 34.6929 2.14219 35 2.9154 35H43.7311C44.5043 35 45.2458 34.6929 45.7926 34.1461C46.3393 33.5994 46.6465 32.8578 46.6465 32.0846V2.93058C46.6349 2.62688 46.5758 2.32685 46.4715 2.04138ZM4.91246 32.0846H2.88625V30.0001L13.4837 19.4901L15.5391 21.5454L4.91246 32.0846ZM43.7019 32.0846H41.6611L31.0345 21.5454L33.0898 19.4901L43.6873 30.0001L43.7019 32.0846Z" fill="#494748"/>
</svg>
