<svg width="37" height="47" viewBox="0 0 37 47" fill="none" xmlns="http://www.w3.org/2000/svg">
<path d="M18.5 0.3125C13.6699 0.318198 9.03915 2.2395 5.62371 5.65494C2.20827 9.07039 0.286968 13.7011 0.281269 18.5312C0.275484 22.4785 1.56483 26.3186 3.95152 29.4625C3.95152 29.4625 4.44839 30.1167 4.52955 30.2111L18.5 46.6875L32.4771 30.2028C32.55 30.1151 33.0485 29.4625 33.0485 29.4625L33.0502 29.4575C35.4357 26.315 36.7244 22.4767 36.7188 18.5312C36.7131 13.7011 34.7918 9.07039 31.3763 5.65494C27.9609 2.2395 23.3302 0.318198 18.5 0.3125V0.3125ZM18.5 25.1562C17.1897 25.1562 15.9088 24.7677 14.8194 24.0397C13.7299 23.3118 12.8807 22.2771 12.3793 21.0665C11.8779 19.856 11.7467 18.5239 12.0023 17.2388C12.2579 15.9537 12.8889 14.7732 13.8154 13.8467C14.742 12.9201 15.9224 12.2892 17.2075 12.0335C18.4927 11.7779 19.8247 11.9091 21.0353 12.4105C22.2459 12.912 23.2805 13.7611 24.0085 14.8506C24.7365 15.9401 25.125 17.2209 25.125 18.5312C25.1228 20.2876 24.4241 21.9715 23.1822 23.2134C21.9402 24.4554 20.2564 25.1541 18.5 25.1562V25.1562Z" fill="#494748"/>
</svg>
