<svg width="40" height="43" viewBox="0 0 40 43" fill="none" xmlns="http://www.w3.org/2000/svg">
<path fill-rule="evenodd" clip-rule="evenodd" d="M9.6604 33.0178C9.01308 33.4468 8.52674 34.1096 8.2873 34.889C8.04786 35.6684 8.07073 36.5143 8.35187 37.2773C8.63301 38.0402 9.15433 38.6711 9.82372 39.0585C10.4931 39.4459 11.2675 39.5648 12.0101 39.3942C12.7527 39.2237 13.4157 38.7747 13.8819 38.1265C14.3482 37.4784 14.5877 36.6728 14.5582 35.852C14.5287 35.0313 14.232 34.2483 13.7206 33.6413C13.2092 33.0343 12.5159 32.6424 11.7634 32.5348C11.7232 32.3791 11.6863 32.2223 11.6528 32.0647C11.5061 31.3475 11.3915 30.623 11.3095 29.8938C11.2209 29.1568 11.1707 28.415 11.1593 27.6719C11.1571 27.4678 11.1624 27.2637 11.1754 27.0601C11.5874 26.9324 12.0016 26.8163 12.4146 26.7153C12.8878 26.5992 13.1689 27.2029 13.3953 27.6928L13.4876 27.889H26.0935C26.3392 27.3851 26.8961 26.5818 27.4358 26.7153C28.0109 26.8569 28.5892 27.0253 29.1621 27.218L29.1589 27.2191C29.1568 27.2168 29.1568 27.2168 29.1589 27.2215C29.1632 27.2377 29.1868 27.3143 29.2104 27.4769C29.2372 27.6649 29.2555 27.9087 29.2641 28.2024C29.2791 28.7875 29.248 29.4991 29.1847 30.2165C29.1203 30.9328 29.0248 31.6259 28.9175 32.1726C28.8939 32.2945 28.8703 32.4048 28.8467 32.5046H27.4358C27.2366 32.5048 27.0413 32.5649 26.8719 32.6783C26.7025 32.7916 26.5656 32.9538 26.4766 33.1466L25.4036 35.4684C25.329 35.6294 25.29 35.8071 25.2899 35.9873V38.3091C25.2899 38.617 25.4029 38.9122 25.6042 39.1299C25.8054 39.3476 26.0783 39.47 26.3628 39.47H28.5087V37.1482H27.4358V36.2613L28.0989 34.8264H31.0645L31.7275 36.2613V37.1482H30.6546V39.47H32.8005C33.085 39.47 33.3579 39.3476 33.5592 39.1299C33.7604 38.9122 33.8734 38.617 33.8734 38.3091V35.9873C33.8733 35.8071 33.8343 35.6294 33.7597 35.4684L32.6867 33.1466C32.5977 32.9538 32.4608 32.7916 32.2914 32.6783C32.122 32.5649 31.9267 32.5048 31.7275 32.5046H31.0451C31.1599 31.8859 31.2554 31.1638 31.3198 30.4394C31.3906 29.657 31.4271 28.8455 31.4089 28.1374L31.4078 28.1049C35.6867 30.061 39.2381 33.2778 39.2381 36.649V42.9526H0.612305V36.649C0.612305 33.1292 4.48561 29.7766 9.01449 27.853C9.02629 28.575 9.08959 29.3912 9.18079 30.1817C9.27951 31.035 9.41362 31.8836 9.56169 32.5824C9.59388 32.7322 9.62606 32.8773 9.6604 33.0178ZM11.3417 37.1656C11.9189 37.1656 12.4146 36.6548 12.4146 35.9873C12.4146 35.3209 11.9189 34.809 11.3417 34.809C10.7645 34.809 10.2688 35.3198 10.2688 35.9873C10.2688 36.6536 10.7645 37.1656 11.3417 37.1656Z" fill="#494748"/>
<path d="M7.04883 15.629C7.04883 20.745 14.5487 22.0568 14.5487 22.0568C14.5487 22.0568 12.8191 12.1893 14.0229 10.448C15.2268 8.70664 24.1654 5.78469 24.7523 6.96531C30.1546 15.3608 23.7405 22.0568 23.7405 22.0568C23.7405 22.0568 31.7264 23.2177 31.7264 15.629C31.7264 8.04145 27.9679 3.48265 27.9679 3.48265C27.9679 3.48265 25.2673 0 19.9831 0C14.6978 0 12.8191 3.48265 12.8191 3.48265C12.8191 3.48265 7.04883 10.513 7.04883 15.629Z" fill="#494748"/>
<path fill-rule="evenodd" clip-rule="evenodd" d="M11.4477 15.1067C11.4224 15.3934 11.4099 15.6812 11.4102 15.9692C11.4102 21.1642 15.5249 25.2563 20.4625 25.2563C25.4002 25.2563 29.516 21.1642 29.516 15.9692C29.516 15.679 29.5021 15.3899 29.4774 15.1067C28.8218 15.253 28.1105 15.383 27.353 15.4956C27.3637 15.6523 27.3691 15.8102 27.3691 15.9692C27.3691 19.7514 24.3391 22.9345 20.4625 22.9345C16.586 22.9345 13.555 19.7514 13.555 15.9692C13.555 15.8102 13.5603 15.6523 13.5711 15.4956C12.8595 15.3914 12.1513 15.2617 11.4477 15.1067Z" fill="#494748"/>
</svg>
