<svg width="36" height="36" viewBox="0 0 36 36" fill="none" xmlns="http://www.w3.org/2000/svg">
<path d="M28.3601 13.5054H25.659C25.658 12.4312 25.2308 11.4012 24.4712 10.6416C23.7116 9.88205 22.6817 9.45484 21.6074 9.45377V6.75269C23.3977 6.75483 25.114 7.46696 26.3799 8.73288C27.6459 9.99879 28.358 11.7151 28.3601 13.5054Z" fill="#494748"/>
<path d="M33.7623 13.5053H31.0612C31.0584 10.9989 30.0614 8.59591 28.2891 6.8236C26.5168 5.05129 24.1138 4.05435 21.6074 4.05149V1.3504C24.83 1.35398 27.9196 2.63572 30.1983 4.91443C32.477 7.19314 33.7587 10.2827 33.7623 13.5053Z" fill="#494748"/>
<path d="M23.4076 24.9607L26.4329 21.9355C26.8378 21.5305 27.3527 21.2532 27.9137 21.1379C28.4748 21.0227 29.0573 21.0746 29.5891 21.2872L33.2733 22.762C33.8164 22.9793 34.2818 23.3543 34.6097 23.8386C34.9376 24.323 35.1128 24.8944 35.1128 25.4793V32.1794C35.1137 32.5776 35.0334 32.9718 34.8767 33.3379C34.72 33.704 34.4903 34.0343 34.2015 34.3085C33.9127 34.5827 33.571 34.7951 33.1973 34.9327C32.8236 35.0703 32.4258 35.1302 32.0281 35.1087C6.20309 33.5015 0.987303 11.6282 0.0189645 3.25212C-0.0279349 2.84263 0.0123911 2.42785 0.137291 2.03506C0.26219 1.64227 0.468833 1.28038 0.743626 0.97318C1.01842 0.665983 1.35514 0.420444 1.73163 0.252712C2.10813 0.0849814 2.51587 -0.00114044 2.92803 1.14032e-05H9.50922C10.0941 -7.37747e-06 10.6656 0.175219 11.1499 0.503087C11.6342 0.830956 12.0092 1.29642 12.2265 1.83945L13.7 5.52373C13.9126 6.05554 13.9645 6.63805 13.8493 7.19908C13.734 7.76011 13.4567 8.275 13.0517 8.67994L10.0265 11.7052C10.0265 11.7052 11.7038 23.4981 23.4076 24.9607Z" fill="#494748"/>
</svg>
