<svg width="146" height="148" viewBox="0 0 146 148" fill="none" xmlns="http://www.w3.org/2000/svg">
<path d="M72.9421 54.868C43.9649 54.868 38.1695 81.4848 38.1695 95.3769C31.102 97.7803 24.4529 101.286 18.4651 105.767C13.6133 109.478 10.4068 114.963 9.53915 121.036C8.67151 127.109 10.2125 133.283 13.8287 138.221C17.6245 143.024 23.1004 146.184 29.1345 147.052C35.1686 147.92 41.3038 146.431 46.2831 142.89C54.1406 137.519 63.4464 134.707 72.9421 134.835C82.4377 134.707 91.7435 137.519 99.601 142.89C104.376 146.734 110.466 148.523 116.544 147.867C122.622 147.211 128.197 144.164 132.055 139.388C133.955 137.13 135.394 134.518 136.29 131.7C137.187 128.882 137.523 125.914 137.28 122.965C137.036 120.016 136.218 117.144 134.873 114.513C133.527 111.883 131.679 109.546 129.436 107.635C129.158 107.391 128.872 107.158 128.578 106.934L127.419 105.767C121.238 101.606 114.632 98.1224 107.715 95.3769C107.715 81.6015 101.919 54.868 72.9421 54.868ZM10.1197 35.0221C6.01168 37.0921 2.82601 40.6412 1.19434 44.9659C-0.437319 49.2906 -0.39581 54.0749 1.31064 58.3702C1.66699 63.0168 3.82405 67.3357 7.31579 70.3938C10.8075 73.4519 15.3536 75.0036 19.9719 74.7138C24.0799 72.6439 27.2656 69.0947 28.8972 64.7701C30.5289 60.4454 30.4874 55.6611 28.7809 51.3658C28.4246 46.7192 26.2675 42.4003 22.7758 39.3422C19.284 36.2841 14.738 34.7323 10.1197 35.0221ZM135.88 35.0221C139.988 37.0921 143.174 40.6412 144.806 44.9659C146.437 49.2906 146.396 54.0749 144.689 58.3702C144.333 63.0168 142.176 67.3357 138.684 70.3938C135.192 73.4519 130.646 75.0036 126.028 74.7138C121.92 72.6439 118.734 69.0947 117.103 64.7701C115.471 60.4454 115.513 55.6611 117.219 51.3658C117.575 46.7192 119.732 42.4003 123.224 39.3422C126.716 36.2841 131.262 34.7323 135.88 35.0221ZM44.8922 0C37.0104 1.05066 33.3014 10.9736 36.0832 21.8305C36.7025 26.5057 38.8914 30.8268 42.2861 34.076C45.6808 37.3252 50.077 39.3068 54.7444 39.6917C62.6262 38.6411 66.3353 28.7181 63.5535 17.8613C62.9341 13.186 60.7453 8.86492 57.3506 5.61575C53.9559 2.36658 49.5597 0.384932 44.8922 0ZM101.108 0C108.99 1.05066 112.699 10.9736 109.917 21.8305C109.293 26.5239 107.087 30.8592 103.669 34.1106C100.251 37.362 95.8277 39.3323 91.1397 39.6917C83.2579 38.7578 79.5488 28.7181 82.3306 17.8613C82.9525 13.1669 85.1575 8.83051 88.5761 5.5787C91.9946 2.32689 96.419 0.357299 101.108 0Z" fill="#494748"/>
</svg>
