<svg width="149" height="150" viewBox="0 0 149 150" fill="none" xmlns="http://www.w3.org/2000/svg">
<path fill-rule="evenodd" clip-rule="evenodd" d="M136.375 8.87258H12.5664C11.4719 8.87258 10.4222 9.30738 9.64823 10.0813C8.87428 10.8553 8.43947 11.905 8.43947 12.9995V136.808C8.43947 137.903 8.87428 138.953 9.64823 139.727C10.4222 140.501 11.4719 140.935 12.5664 140.935H136.375C137.47 140.935 138.52 140.501 139.294 139.727C140.067 138.953 140.502 137.903 140.502 136.808V12.9995C140.502 11.905 140.067 10.8553 139.294 10.0813C138.52 9.30738 137.47 8.87258 136.375 8.87258ZM12.5664 0.618652C9.28282 0.618652 6.13369 1.92306 3.81183 4.24493C1.48996 6.5668 0.185547 9.71592 0.185547 12.9995V136.808C0.185547 140.092 1.48996 143.241 3.81183 145.563C6.13369 147.885 9.28282 149.189 12.5664 149.189H136.375C139.659 149.189 142.808 147.885 145.13 145.563C147.452 143.241 148.756 140.092 148.756 136.808V12.9995C148.756 9.71592 147.452 6.5668 145.13 4.24493C142.808 1.92306 139.659 0.618652 136.375 0.618652H12.5664Z" fill="#494748"/>
<path fill-rule="evenodd" clip-rule="evenodd" d="M59.981 43.2501C53.2004 44.4222 48.2604 50.1669 47.4516 57.0012L41.4551 107.92H107.486L101.478 56.931C100.677 50.1298 95.7824 44.3974 89.039 43.2171C78.9279 41.4467 70.5006 41.4302 59.981 43.2501ZM65.1026 61.0704C65.2109 59.9982 64.8955 58.9262 64.2239 58.0835C63.5523 57.2407 62.5777 56.6941 61.5084 56.5604C60.4391 56.4268 59.3599 56.7167 58.5015 57.3681C57.6431 58.0196 57.0736 58.981 56.9147 60.0469L53.1798 89.9178C53.0986 90.462 53.1271 91.0169 53.2636 91.5499C53.4 92.0829 53.6416 92.5832 53.9742 93.0215C54.3068 93.4597 54.7237 93.827 55.2004 94.1018C55.677 94.3766 56.2038 94.5533 56.7497 94.6216C57.2957 94.6898 57.8497 94.6482 58.3793 94.4992C58.909 94.3502 59.4034 94.0968 59.8337 93.7539C60.2639 93.411 60.6213 92.9855 60.8847 92.5025C61.1482 92.0195 61.3124 91.4887 61.3677 90.9413L65.1026 61.0704Z" fill="#494748"/>
<path fill-rule="evenodd" clip-rule="evenodd" d="M111.613 124.428H37.3281V116.174H111.613V124.428Z" fill="#494748"/>
<path d="M29.0733 74.9041C29.0733 76.2948 29.1352 77.6691 29.259 79.031H16.6924V70.7771H29.259C29.1352 72.139 29.0733 73.5133 29.0733 74.9041Z" fill="#494748"/>
<path d="M37.3777 48.7226C35.786 50.9746 34.4033 53.3672 33.2466 55.8705L22.3721 49.5893L26.499 42.4414L37.3777 48.7226Z" fill="#494748"/>
<path d="M55.4328 33.6758C52.9195 34.8438 50.53 36.2304 48.2932 37.8111L42.0078 26.9324L49.1557 22.8054L55.4328 33.68V33.6758Z" fill="#494748"/>
<path d="M74.4707 29.5074C73.0799 29.5074 71.7056 29.5693 70.3438 29.6931V17.1265H78.5977V29.6931C77.2255 29.5695 75.8485 29.5076 74.4707 29.5074Z" fill="#494748"/>
<path d="M100.653 37.8111C98.4007 36.2196 96.0082 34.8368 93.5049 33.68L99.7861 22.8054L106.934 26.9324L100.653 37.8111Z" fill="#494748"/>
<path d="M115.699 55.8664C114.54 53.3657 113.156 50.9759 111.563 48.7268L122.442 42.4414L126.569 49.5893L115.695 55.8664H115.699Z" fill="#494748"/>
<path d="M119.867 74.9041C119.867 73.5133 119.805 72.139 119.682 70.7771H132.248V79.031H119.682C119.805 77.6691 119.867 76.2948 119.867 74.9041Z" fill="#494748"/>
</svg>
