<svg width="149" height="148" viewBox="0 0 149 148" fill="none" xmlns="http://www.w3.org/2000/svg">
<path d="M77.4276 59.2053L121.062 75.7156V143.067C121.062 144.375 120.572 145.63 119.699 146.555C118.826 147.48 117.641 148 116.406 148H97.7812C96.5463 148 95.362 147.48 94.4888 146.555C93.6156 145.63 93.125 144.375 93.125 143.067V108.536H46.5625V143.067C46.5625 144.375 46.0719 145.63 45.1987 146.555C44.3255 147.48 43.1412 148 41.9062 148H23.2812C22.0463 148 20.862 147.48 19.9888 146.555C19.1156 145.63 18.625 144.375 18.625 143.067V77.1153C7.81086 73.0301 0 62.1836 0 49.3392C0 46.7226 0.981135 44.2131 2.72757 42.3628C4.474 40.5126 6.84267 39.4731 9.3125 39.4731C11.7823 39.4731 14.151 40.5126 15.8974 42.3628C17.6439 44.2131 18.625 46.7226 18.625 49.3392C18.6296 51.9544 19.6122 54.461 21.3577 56.3102C23.1031 58.1594 25.4691 59.2004 27.9375 59.2053H77.4276ZM149 24.674V34.5401C149 39.7734 147.038 44.7923 143.545 48.4928C140.052 52.1933 135.315 54.2722 130.375 54.2722H121.062V65.2421L83.8125 51.149V4.94185C83.8125 0.548363 88.8238 -1.65301 91.7601 1.45481L99.699 9.87489H115.306C118.481 9.87489 122.218 12.3167 123.635 15.329L125.719 19.741H144.344C145.579 19.741 146.763 20.2607 147.636 21.1858C148.509 22.1109 149 23.3657 149 24.674ZM116.406 24.674C116.406 23.6983 116.133 22.7446 115.622 21.9334C115.11 21.1221 114.383 20.4898 113.532 20.1165C112.681 19.7431 111.745 19.6454 110.842 19.8358C109.938 20.0261 109.109 20.4959 108.458 21.1858C107.806 21.8757 107.363 22.7547 107.183 23.7116C107.004 24.6685 107.096 25.6604 107.448 26.5618C107.801 27.4632 108.397 28.2336 109.163 28.7757C109.929 29.3177 110.829 29.607 111.75 29.607C112.985 29.607 114.169 29.0873 115.042 28.1622C115.916 27.2371 116.406 25.9823 116.406 24.674Z" fill="#494748"/>
</svg>
