<svg width="72" height="16" viewBox="0 0 72 16" fill="none" xmlns="http://www.w3.org/2000/svg">
<path d="M11.1163 7.87065H11.0009L7.58621 0.635102C7.48469 0.41822 7.2632 0.279785 7.02324 0.279785H0.622954C0.276868 0.279785 0 0.556656 0 0.902744V14.5017C0 14.8478 0.276868 15.1247 0.622954 15.1247H5.22359C5.56968 15.1247 5.84655 14.8478 5.84655 14.5017V7.46919H5.96191L9.62119 14.7832C9.72733 14.9954 9.94421 15.1293 10.1795 15.1293H16.3399C16.686 15.1293 16.9628 14.8524 16.9628 14.5063V0.902744C16.9628 0.556656 16.686 0.279785 16.3399 0.279785H11.7392C11.3932 0.279785 11.1163 0.556656 11.1163 0.902744V7.87065Z" fill="#494748"/>
<path d="M25.2096 8.61625H33.4234C33.6218 8.61625 33.7879 8.45474 33.7879 8.2517V7.14884C33.7879 6.95041 33.6264 6.78429 33.4234 6.78429H25.2096V4.6893H33.7972C34.1433 4.6893 34.4201 4.41243 34.4201 4.06634V0.900791C34.4201 0.554703 34.1433 0.277832 33.7972 0.277832H19.5106C19.1646 0.277832 18.8877 0.554703 18.8877 0.900791V14.509C18.8877 14.8458 19.1646 15.1227 19.5014 15.1227H33.8941C34.2402 15.1227 34.517 14.8458 34.517 14.4998V11.528C34.517 11.1819 34.2402 10.905 33.8941 10.905H25.2096V8.61625Z" fill="#494748"/>
<path d="M53.3985 6.1521C53.3985 0.997696 50.4452 0.277832 46.5367 0.277832H37.0585C36.7124 0.277832 36.4355 0.554703 36.4355 0.900791V14.4998C36.4355 14.8458 36.7124 15.1227 37.0585 15.1227H42.1345C42.4806 15.1227 42.7574 14.8458 42.7574 14.4998V11.8787H43.828C44.1649 13.5122 45.48 14.7766 47.1366 15.0535C47.335 15.095 47.5427 15.1227 47.7688 15.1227H52.7755C53.1216 15.1227 53.3985 14.8458 53.3985 14.4998V11.8787C53.3985 11.5326 53.1216 11.2558 52.7755 11.2558H50.7313C52.4617 10.5497 53.3985 9.09155 53.3985 6.1521ZM42.762 4.64777H45.6138C46.3152 4.64777 46.9013 5.19229 46.9566 5.88908C47.0858 7.51338 46.5782 8.0579 45.1754 8.10404H42.762V4.64777Z" fill="#494748"/>
<path d="M72.0003 7.6149C72.0003 2.22516 69.3932 0.277832 64.3356 0.277832H55.9511C55.605 0.277832 55.3281 0.554703 55.3281 0.900791V14.4167C55.3281 14.8089 55.6465 15.1227 56.0341 15.1227H64.3356C69.3932 15.1227 72.0003 13.1708 72.0003 7.78564C72.0003 7.75795 71.9957 7.73027 71.9957 7.70258C71.9957 7.67028 72.0003 7.6472 72.0003 7.6149ZM63.2558 10.5636H61.5485V8.89312V4.83697H63.2558C65.1386 4.83697 65.6416 5.866 65.6646 7.70258C65.6416 9.53454 65.1432 10.5636 63.2558 10.5636Z" fill="#494748"/>
</svg>
