<svg width="30" height="20" viewBox="0 0 30 20" fill="none" xmlns="http://www.w3.org/2000/svg">
<path d="M24.6582 7.42379L29.5627 5.66899L27.7179 4.67909L26.9529 2.78931L24.6582 7.42379Z" fill="#494748"/>
<path d="M8.95413 11.4734C8.45919 10.8885 7.73927 11.2035 7.24433 11.3834H7.19933C6.5694 11.6534 5.89447 11.6534 5.26454 11.3834H5.21955C4.7246 11.2035 4.00468 10.8885 3.50974 11.4734C3.28476 11.6984 3.19477 12.0134 3.23976 12.2833C3.32975 12.7333 3.7797 13.1832 4.36464 13.4532C4.94958 13.6782 5.57951 13.8132 6.20944 13.8132C6.83937 13.8132 7.4693 13.6782 8.05423 13.4532C8.68416 13.1832 9.08912 12.7333 9.17911 12.2833C9.2691 11.9684 9.17911 11.6984 8.95413 11.4734ZM8.86414 12.2383C8.77415 12.5983 8.4142 12.9583 7.91925 13.1832C6.83937 13.6332 5.57951 13.6332 4.49963 13.1832C4.00468 12.9583 3.64472 12.5983 3.55473 12.2383C3.50973 12.0584 3.55473 11.8784 3.73471 11.6984C3.8697 11.5184 4.04967 11.4734 4.22965 11.4734C4.45463 11.4734 4.7696 11.5634 5.08456 11.6984H5.12955C5.80448 11.9684 6.61439 11.9684 7.28932 11.6984H7.33432C7.91925 11.4734 8.3692 11.3384 8.68417 11.6984C8.81915 11.8334 8.90914 12.0134 8.86414 12.2383Z" fill="#494748"/>
<path d="M8.00886 12.0134C5.8041 13.4532 4.36426 12.1034 4.31927 12.0134C4.27427 11.9684 4.13929 11.9684 4.09429 12.0134C4.0493 12.0584 4.0493 12.1934 4.09429 12.2384C4.09429 12.2384 4.85921 12.9583 6.07407 12.9583C6.704 12.9583 7.42392 12.7783 8.23384 12.2384C8.32383 12.1934 8.32382 12.1034 8.27883 12.0134C8.18884 11.9684 8.09885 11.9234 8.00886 12.0134Z" fill="#494748"/>
<path d="M28.1219 17.0531V14.3534C28.1219 11.6987 27.357 9.13399 25.9171 6.92923C25.7822 6.70426 25.6022 6.4343 25.3772 6.16433C23.0375 3.10466 19.5278 1.21487 15.7033 0.899901V0H13.6785V0.899901C10.4838 1.12488 7.46918 2.51973 5.17443 4.76948C4.45451 4.18454 3.50961 3.91457 2.47473 4.13955C1.03489 4.45451 0 5.75937 0 7.2442C0 8.54906 0.764914 9.62894 1.88979 10.1239C1.43984 11.4737 1.21486 12.8686 1.21486 14.3084V17.0081H0.359962V19.0329H2.38474V18.268H9.89891V19.1229H11.9237V17.0981H11.0688V14.3534C11.0688 12.7786 12.1037 11.4287 13.5885 10.9788V11.6987H15.6133V11.0238C16.1532 11.2038 16.6932 11.4737 17.0981 11.8787C17.773 12.5536 18.133 13.4535 18.133 14.3984V17.1431H17.2781V19.1679H19.3029V18.268H26.817V19.0779H28.8418V17.0531H28.1219ZM13.9935 0.404953H15.3433V1.7548H13.9935V0.404953ZM3.14965 4.4995C4.67948 4.4995 5.93934 5.75937 5.93934 7.2892C5.93934 8.2341 5.4894 9.089 4.72448 9.62894L2.56472 4.5895C2.78969 4.49951 2.96967 4.4995 3.14965 4.4995ZM2.06977 18.7629H0.719923V17.4131H2.06977V18.7629ZM11.6087 18.8079H10.2589V17.4581H11.6087V18.8079ZM15.3433 11.3388H13.9935V9.9889H15.3433V11.3388ZM19.0779 18.8079H17.728V17.4581H19.0779V18.8079ZM19.3929 17.953V17.0981H18.538V14.3534C18.538 13.3185 18.133 12.3286 17.4131 11.6087C16.9181 11.1138 16.3332 10.7988 15.7033 10.6188V9.62894H13.6785V10.6188C11.9687 11.0688 10.8438 12.5986 10.8438 14.3534V17.0981H9.89891V17.953H2.38474V17.0531H1.52983V14.3534C1.52983 12.9586 1.75481 11.6087 2.15976 10.3039C2.47473 10.3939 2.78969 10.4389 3.14965 10.4389C3.77958 10.4389 4.36452 10.2589 4.90446 9.89891C5.53439 9.49395 5.98434 8.81903 6.20932 8.14411C6.56928 9.44896 7.82914 10.4389 9.26898 10.4389C9.89891 10.4389 10.4838 10.2589 11.0238 9.89891C11.9237 9.31397 12.4636 8.32409 12.4636 7.2442C12.4636 5.26442 10.6188 3.6896 8.59406 4.13955C7.42419 4.40952 6.56927 5.26442 6.25431 6.3443C6.11932 5.80436 5.84936 5.35441 5.4444 4.99445C7.64916 2.7897 10.5738 1.43985 13.6785 1.21487V2.02478H15.7033V1.21487C19.4379 1.48484 22.8575 3.37463 25.1072 6.3443C25.3322 6.61427 25.4672 6.83925 25.6472 7.06423C27.087 9.22399 27.8069 11.6987 27.8069 14.2634V16.9631H26.952V17.863H19.3929V17.953ZM8.68404 4.5445C8.86403 4.49951 9.089 4.4995 9.26898 4.4995C10.7988 4.4995 12.0587 5.75937 12.0587 7.2892C12.0587 8.2341 11.6087 9.089 10.8438 9.62894L8.68404 4.5445ZM28.6169 18.7629H27.267V17.4131H28.6169V18.7629Z" fill="#494748"/>
</svg>
